<svg width="249.99999999999997" height="80" xmlns="http://www.w3.org/2000/svg">

 <g>
  <title>Layer 1</title>
  <g stroke-width="0">
   <!---->
   <defs transform="translate(-0.781254 -10.1563) translate(-14.0626 -25.0001) translate(12.5001 -53.1253) translate(-59.3753 -31.2502) translate(-14.0626 -3.12502) translate(51 0) translate(0 15.5)">
    <!---->
   </defs>
   <rect class="logo-background-square" height="300" width="300" y="-107.15688" x="-24.78164" fill="#1B3B48"/>
   <defs transform="translate(-0.781254 -10.1563) translate(-14.0626 -25.0001) translate(12.5001 -53.1253) translate(-59.3753 -31.2502) translate(-14.0626 -3.12502) translate(51 0) translate(0 15.5)">
    <!---->
   </defs>
   <g transform="matrix(1.5561 0 0 1.5561 95.0849 125.598)" fill="#ffffff" id="svg_9">
    <path d="m-14.62552,-54.51262l1.15,0l0,-8.23l0.07,0l0.83,1.64l2.33,4.25l2.34,-4.25l0.83,-1.64l0.07,0l0,8.23l1.15,0l0,-9.77l-1.52,0l-2.81,5.26l-0.07,0l-2.8,-5.26l-1.57,0l0,9.77zm11.82,-8.92c0.47,0 0.68,-0.25 0.68,-0.63l0,-0.18c0,-0.38 -0.21,-0.63 -0.68,-0.63c-0.48,0 -0.69,0.25 -0.69,0.63l0,0.18c0,0.38 0.21,0.63 0.69,0.63zm-0.56,8.92l1.12,0l0,-7.22l-1.12,0l0,7.22zm4.62,0l0,-5.01c0,-0.93 0.87,-1.37 1.76,-1.37c1.08,0 1.64,0.65 1.64,1.94l0,4.44l1.12,0l0,-4.63c0,-1.75 -0.94,-2.76 -2.42,-2.76c-1.08,0 -1.7,0.53 -2.05,1.34l-0.05,0l0,-1.17l-1.12,0l0,7.22l1.12,0zm9,0.17c1.65,0 2.67,-0.86 2.67,-2.26c0,-1.09 -0.61,-1.79 -2.21,-2.03l-0.56,-0.08c-0.89,-0.14 -1.38,-0.42 -1.38,-1.12c0,-0.69 0.49,-1.12 1.41,-1.12c0.92,0 1.54,0.43 1.86,0.88l0.74,-0.67c-0.58,-0.73 -1.35,-1.16 -2.52,-1.16c-1.47,0 -2.57,0.7 -2.57,2.13c0,1.34 0.99,1.89 2.32,2.08l0.58,0.09c0.95,0.14 1.26,0.57 1.26,1.13c0,0.74 -0.56,1.18 -1.52,1.18c-0.91,0 -1.58,-0.41 -2.14,-1.11l-0.8,0.64c0.65,0.86 1.53,1.42 2.86,1.42zm10.53,-0.17l0,-0.98l-0.83,0l0,-3.98c0,-1.52 -1.03,-2.43 -2.77,-2.43c-1.3,0 -2.17,0.64 -2.56,1.41l0.67,0.63c0.39,-0.66 0.97,-1.08 1.83,-1.08c1.15,0 1.71,0.56 1.71,1.59l0,0.71l-1.43,0c-2.1,0 -3.08,0.76 -3.08,2.11c0,1.35 0.9,2.19 2.43,2.19c1,0 1.77,-0.46 2.08,-1.35l0.07,0c0.09,0.68 0.42,1.18 1.25,1.18l0.63,0zm-3.85,-0.78c-0.87,0 -1.43,-0.41 -1.43,-1.12l0,-0.3c0,-0.7 0.57,-1.09 1.85,-1.09l1.48,0l0,1.19c0,0.74 -0.8,1.32 -1.9,1.32zm6,-8.14c0.48,0 0.69,-0.25 0.69,-0.63l0,-0.18c0,-0.38 -0.21,-0.63 -0.69,-0.63c-0.47,0 -0.68,0.25 -0.68,0.63l0,0.18c0,0.38 0.21,0.63 0.68,0.63zm-0.56,8.92l1.12,0l0,-7.22l-1.12,0l0,7.22zm6.5,0l0,-0.98l-1.47,0l0,-5.26l1.58,0l0,-0.98l-1.58,0l0,-2.01l-1.01,0l0,1.35c0,0.49 -0.15,0.66 -0.63,0.66l-0.67,0l0,0.98l1.19,0l0,5.05c0,0.7 0.42,1.19 1.19,1.19l1.4,0zm8.08,0.17c2.1,0 3.36,-1.15 3.36,-2.94c0,-1.46 -0.83,-2.3 -2.73,-2.73l-0.8,-0.18c-1.23,-0.28 -1.83,-0.7 -1.83,-1.63c0,-1.05 0.77,-1.59 2.01,-1.59c1.14,0 1.88,0.46 2.41,1.2l0.88,-0.64c-0.73,-1.04 -1.76,-1.6 -3.23,-1.6c-1.92,0 -3.24,0.94 -3.24,2.67c0,1.5 0.98,2.29 2.76,2.69l0.8,0.18c1.29,0.3 1.81,0.76 1.81,1.68c0,1.12 -0.76,1.85 -2.16,1.85c-1.13,0 -1.95,-0.49 -2.63,-1.4l-0.87,0.73c0.78,1.06 1.89,1.71 3.46,1.71zm8.27,-0.17l0,-0.98l-1.47,0l0,-5.26l1.58,0l0,-0.98l-1.58,0l0,-2.01l-1.01,0l0,1.35c0,0.49 -0.15,0.66 -0.63,0.66l-0.67,0l0,0.98l1.19,0l0,5.05c0,0.7 0.42,1.19 1.19,1.19l1.4,0zm7.8,0l0,-0.98l-0.83,0l0,-3.98c0,-1.52 -1.03,-2.43 -2.77,-2.43c-1.3,0 -2.17,0.64 -2.56,1.41l0.67,0.63c0.39,-0.66 0.97,-1.08 1.84,-1.08c1.14,0 1.7,0.56 1.7,1.59l0,0.71l-1.42,0c-2.1,0 -3.08,0.76 -3.08,2.11c0,1.35 0.89,2.19 2.42,2.19c1.01,0 1.78,-0.46 2.08,-1.35l0.07,0c0.09,0.68 0.42,1.18 1.25,1.18l0.63,0zm-3.85,-0.78c-0.87,0 -1.43,-0.41 -1.43,-1.12l0,-0.3c0,-0.7 0.58,-1.09 1.85,-1.09l1.48,0l0,1.19c0,0.74 -0.79,1.32 -1.9,1.32zm8.44,0.78l0,-0.98l-1.47,0l0,-5.26l1.58,0l0,-0.98l-1.58,0l0,-2.01l-1.01,0l0,1.35c0,0.49 -0.15,0.66 -0.63,0.66l-0.67,0l0,0.98l1.19,0l0,5.05c0,0.7 0.42,1.19 1.19,1.19l1.4,0zm2.48,-8.92c0.48,0 0.69,-0.25 0.69,-0.63l0,-0.18c0,-0.38 -0.21,-0.63 -0.69,-0.63c-0.48,0 -0.69,0.25 -0.69,0.63l0,0.18c0,0.38 0.21,0.63 0.69,0.63zm-0.56,8.92l1.12,0l0,-7.22l-1.12,0l0,7.22zm5.67,0.17c1.65,0 2.67,-0.86 2.67,-2.26c0,-1.09 -0.61,-1.79 -2.21,-2.03l-0.56,-0.08c-0.89,-0.14 -1.38,-0.42 -1.38,-1.12c0,-0.69 0.49,-1.12 1.41,-1.12c0.92,0 1.54,0.43 1.86,0.88l0.74,-0.67c-0.58,-0.73 -1.35,-1.16 -2.52,-1.16c-1.47,0 -2.57,0.7 -2.57,2.13c0,1.34 0.99,1.89 2.32,2.08l0.58,0.09c0.95,0.14 1.26,0.57 1.26,1.13c0,0.74 -0.56,1.18 -1.52,1.18c-0.91,0 -1.58,-0.41 -2.14,-1.11l-0.8,0.64c0.65,0.86 1.53,1.42 2.86,1.42zm7.55,-0.17l0,-0.98l-1.47,0l0,-5.26l1.58,0l0,-0.98l-1.58,0l0,-2.01l-1.01,0l0,1.35c0,0.49 -0.16,0.66 -0.63,0.66l-0.67,0l0,0.98l1.19,0l0,5.05c0,0.7 0.42,1.19 1.19,1.19l1.4,0zm2.47,-8.92c0.48,0 0.69,-0.25 0.69,-0.63l0,-0.18c0,-0.38 -0.21,-0.63 -0.69,-0.63c-0.47,0 -0.68,0.25 -0.68,0.63l0,0.18c0,0.38 0.21,0.63 0.68,0.63zm-0.56,8.92l1.12,0l0,-7.22l-1.12,0l0,7.22zm6.19,0.17c1.37,0 2.31,-0.67 2.77,-1.71l-0.81,-0.55c-0.39,0.83 -1.05,1.26 -1.96,1.26c-1.33,0 -2.01,-0.91 -2.01,-2.17l0,-1.23c0,-1.26 0.68,-2.17 2.01,-2.17c0.88,0 1.5,0.44 1.77,1.18l0.93,-0.48c-0.42,-0.99 -1.27,-1.69 -2.7,-1.69c-2.03,0 -3.22,1.47 -3.22,3.78c0,2.31 1.19,3.78 3.22,3.78zm6.53,0c1.65,0 2.67,-0.86 2.67,-2.26c0,-1.09 -0.62,-1.79 -2.21,-2.03l-0.56,-0.08c-0.9,-0.14 -1.39,-0.42 -1.39,-1.12c0,-0.69 0.49,-1.12 1.42,-1.12c0.92,0 1.54,0.43 1.86,0.88l0.74,-0.67c-0.59,-0.73 -1.36,-1.16 -2.52,-1.16c-1.47,0 -2.58,0.7 -2.58,2.13c0,1.34 1,1.89 2.33,2.08l0.57,0.09c0.95,0.14 1.26,0.57 1.26,1.13c0,0.74 -0.56,1.18 -1.51,1.18c-0.91,0 -1.58,-0.41 -2.14,-1.11l-0.8,0.64c0.64,0.86 1.53,1.42 2.86,1.42z"/>
   </g>
   <defs transform="translate(-0.781254 -10.1563) translate(-14.0626 -25.0001) translate(12.5001 -53.1253) translate(-59.3753 -31.2502) translate(-14.0626 -3.12502) translate(51 0) translate(0 15.5)">
    <!---->
   </defs>
   <g transform="matrix(1.37837 0 0 1.37837 40 127.946)" fill="#fff" id="svg_8">
    <path d="m-0.40695,-53.80876l4.106,7.095l10.322,-17.839l-8.981,0l0,-5.607l-11.509,-6.61l-11.51,6.61l0,13.222l11.51,6.611l6.062,-3.482zm10.96,-8.744l-6.855,11.846l-6.855,-11.846l13.71,0z"/>
   </g>
   <defs transform="translate(-0.781254 -10.1563) translate(-14.0626 -25.0001) translate(12.5001 -53.1253) translate(-59.3753 -31.2502) translate(-14.0626 -3.12502) translate(51 0) translate(0 15.5)">
    <!---->
   </defs>
   <g transform="matrix(0.754305 0 0 0.754305 96.2555 156.926)" fill="#ffce00" id="svg_7">
    <path d="m-23.9236,-139.8504l-3.26,4.4l-3.32,-4.4l-1.22,0l0,9.27l1.05,0l0,-7.67l3.49,4.41l3.43,-4.41l0,7.67l1.05,0l0,-9.27l-1.22,0zm13.26,8.43c-1.41,0 -2.32,-0.99 -2.48,-2.24l5.87,0l0,-0.42c0,-2 -1.33,-3.61 -3.47,-3.61c-2.15,0 -3.48,1.61 -3.48,3.61c0,2 1.4,3.61 3.55,3.61c1.66,0 2.7,-0.87 3.19,-2.13l-1.15,0c-0.38,0.7 -1.05,1.18 -2.03,1.18zm-0.08,-5.32c1.34,0 2.18,0.91 2.38,2.1l-4.76,0c0.19,-1.19 1.03,-2.1 2.38,-2.1zm13.48,6.16l0,-6.08l1.61,0l0,-0.92l-1.61,0l0,-2.51l-1.05,0l0,2.51l-1.43,0l0,0.92l1.43,0l0,6.08l1.05,0zm13.38,-7.11c-1.73,0 -2.43,1.36 -2.57,1.83l0,-1.72l-1.05,0l0,7l1.05,0l0,-3.08c0,-1.54 0.95,-2.98 2.52,-2.98l0.12,0l0,-1.05l-0.07,0zm8.21,7.11l1.05,0l0,-7l-1.05,0l0,7zm-0.05,-9.55l0,1.37l1.14,0l0,-1.37l-1.14,0zm13.07,8.71c-1.56,0 -2.54,-1.22 -2.54,-2.66c0,-1.44 0.98,-2.66 2.54,-2.66c0.99,0 1.7,0.56 2.03,1.36l1.13,0c-0.41,-1.36 -1.65,-2.31 -3.3,-2.31c-2.1,0 -3.45,1.61 -3.45,3.61c0,2 1.35,3.61 3.45,3.61c1.65,0 2.89,-0.95 3.3,-2.31l-1.13,0c-0.33,0.8 -1.04,1.36 -2.03,1.36zm13.84,-6.27c-1.8,0 -2.74,0.74 -2.74,2c0,2.56 4.66,1.47 4.66,3.22c0,0.95 -1.22,1.11 -1.79,1.11c-1.36,0 -1.89,-0.7 -1.96,-1.42l-1.09,0c0.07,1.23 1.09,2.31 3.03,2.31c1.74,0 2.86,-0.74 2.86,-2.1c0,-2.63 -4.66,-1.54 -4.66,-3.22c0,-0.68 0.57,-1.01 1.66,-1.01c1.18,0 1.63,0.49 1.71,1.1l1.07,0c-0.13,-1.03 -0.9,-1.99 -2.75,-1.99zm25.68,-2.16l-1.32,0l-3.93,9.27l1.16,0l1.13,-2.69l4.6,0l1.13,2.69l1.16,0l-3.93,-9.27zm-2.55,5.62l1.89,-4.53l1.89,4.53l-3.78,0zm14.43,-3.35l0,7l1.05,0l0,-4.03c0,-1.26 0.96,-2.13 2.12,-2.13c1.15,0 1.96,0.84 1.96,2.11l0,4.05l1.05,0l0,-4.07c0,-1.99 -1.36,-3.04 -2.8,-3.04c-1.14,0 -1.82,0.53 -2.33,1.2l0,-1.09l-1.05,0zm17.88,-0.11c-2.04,0 -3.39,1.61 -3.39,3.61c0,2 1.35,3.61 3.39,3.61c1.16,0 1.99,-0.47 2.51,-1.23l0,1.12l1.05,0l0,-7l-1.05,0l0,1.13c-0.52,-0.75 -1.35,-1.24 -2.51,-1.24zm0.14,6.27c-1.55,0 -2.48,-1.22 -2.48,-2.66c0,-1.44 0.93,-2.66 2.48,-2.66c1.56,0 2.42,1.22 2.42,2.66c0,1.44 -0.86,2.66 -2.42,2.66zm13.29,-8.96l-1.05,0l0,9.8l1.05,0l0,-9.8zm14.82,2.8l-1.14,0l-2.3,5.74l-2.25,-5.74l-1.17,0l2.86,6.9l-1.27,2.87l1.13,0l4.14,-9.77zm9.76,7l0,-6.08l1.61,0l0,-0.92l-1.61,0l0,-2.51l-1.05,0l0,2.51l-1.43,0l0,0.92l1.43,0l0,6.08l1.05,0zm9.76,0l1.05,0l0,-7l-1.05,0l0,7zm-0.04,-9.55l0,1.37l1.13,0l0,-1.37l-1.13,0zm13.06,8.71c-1.55,0 -2.53,-1.22 -2.53,-2.66c0,-1.44 0.98,-2.66 2.53,-2.66c0.99,0 1.71,0.56 2.03,1.36l1.13,0c-0.4,-1.36 -1.65,-2.31 -3.3,-2.31c-2.1,0 -3.44,1.61 -3.44,3.61c0,2 1.34,3.61 3.44,3.61c1.65,0 2.9,-0.95 3.3,-2.31l-1.13,0c-0.32,0.8 -1.04,1.36 -2.03,1.36zm13.85,-6.27c-1.81,0 -2.75,0.74 -2.75,2c0,2.56 4.66,1.47 4.66,3.22c0,0.95 -1.21,1.11 -1.79,1.11c-1.36,0 -1.89,-0.7 -1.96,-1.42l-1.09,0c0.07,1.23 1.09,2.31 3.04,2.31c1.73,0 2.85,-0.74 2.85,-2.1c0,-2.63 -4.66,-1.54 -4.66,-3.22c0,-0.68 0.58,-1.01 1.67,-1.01c1.17,0 1.62,0.49 1.71,1.1l1.06,0c-0.13,-1.03 -0.9,-1.99 -2.74,-1.99z"/>
   </g>
  </g>
 </g>
</svg>